<mxfile host="app.diagrams.net" modified="2022-03-10T09:41:00.878Z" agent="5.0 (Windows NT 10.0; Win64; x64) AppleWebKit/537.36 (KHTML, like Gecko) Chrome/99.0.4844.51 Safari/537.36 Edg/99.0.1150.30" etag="sVeWVNnzqGQCUPEIs7ew" version="17.1.0" type="github">
  <diagram id="QqMGb3HEDdaKd95GT7UP" name="Page-1">
    <mxGraphModel dx="830" dy="463" grid="1" gridSize="10" guides="1" tooltips="1" connect="1" arrows="1" fold="1" page="1" pageScale="1" pageWidth="827" pageHeight="1169" math="0" shadow="0">
      <root>
        <mxCell id="0" />
        <mxCell id="1" parent="0" />
        <mxCell id="Y_w5nPJDf5opE5NmH8y6-10" style="edgeStyle=orthogonalEdgeStyle;rounded=0;orthogonalLoop=1;jettySize=auto;html=1;entryX=0;entryY=0.5;entryDx=0;entryDy=0;" edge="1" parent="1" source="Y_w5nPJDf5opE5NmH8y6-1" target="Y_w5nPJDf5opE5NmH8y6-2">
          <mxGeometry relative="1" as="geometry" />
        </mxCell>
        <mxCell id="Y_w5nPJDf5opE5NmH8y6-1" value="开始测试录入" style="ellipse;whiteSpace=wrap;html=1;aspect=fixed;fillColor=#fff2cc;strokeColor=#d6b656;" vertex="1" parent="1">
          <mxGeometry x="70" y="100" width="80" height="80" as="geometry" />
        </mxCell>
        <mxCell id="Y_w5nPJDf5opE5NmH8y6-11" style="edgeStyle=orthogonalEdgeStyle;rounded=0;orthogonalLoop=1;jettySize=auto;html=1;entryX=0.5;entryY=0;entryDx=0;entryDy=0;" edge="1" parent="1" source="Y_w5nPJDf5opE5NmH8y6-2" target="Y_w5nPJDf5opE5NmH8y6-3">
          <mxGeometry relative="1" as="geometry" />
        </mxCell>
        <mxCell id="Y_w5nPJDf5opE5NmH8y6-2" value="录入基本信息" style="rounded=1;whiteSpace=wrap;html=1;fillColor=#dae8fc;strokeColor=#6c8ebf;" vertex="1" parent="1">
          <mxGeometry x="280" y="110" width="120" height="60" as="geometry" />
        </mxCell>
        <mxCell id="Y_w5nPJDf5opE5NmH8y6-12" style="edgeStyle=orthogonalEdgeStyle;rounded=0;orthogonalLoop=1;jettySize=auto;html=1;entryX=0.5;entryY=0;entryDx=0;entryDy=0;" edge="1" parent="1" source="Y_w5nPJDf5opE5NmH8y6-3" target="Y_w5nPJDf5opE5NmH8y6-6">
          <mxGeometry relative="1" as="geometry" />
        </mxCell>
        <mxCell id="Y_w5nPJDf5opE5NmH8y6-3" value="录入详细加油位置信息" style="rounded=1;whiteSpace=wrap;html=1;fillColor=#dae8fc;strokeColor=#6c8ebf;" vertex="1" parent="1">
          <mxGeometry x="280" y="220" width="120" height="60" as="geometry" />
        </mxCell>
        <mxCell id="Y_w5nPJDf5opE5NmH8y6-13" style="edgeStyle=orthogonalEdgeStyle;rounded=0;orthogonalLoop=1;jettySize=auto;html=1;entryX=0.5;entryY=0;entryDx=0;entryDy=0;" edge="1" parent="1" source="Y_w5nPJDf5opE5NmH8y6-6" target="Y_w5nPJDf5opE5NmH8y6-7">
          <mxGeometry relative="1" as="geometry">
            <mxPoint x="350" y="440" as="targetPoint" />
          </mxGeometry>
        </mxCell>
        <mxCell id="Y_w5nPJDf5opE5NmH8y6-6" value="上传图片及描述" style="rounded=1;whiteSpace=wrap;html=1;fillColor=#dae8fc;strokeColor=#6c8ebf;" vertex="1" parent="1">
          <mxGeometry x="280" y="340" width="120" height="60" as="geometry" />
        </mxCell>
        <mxCell id="Y_w5nPJDf5opE5NmH8y6-14" value="有" style="edgeStyle=orthogonalEdgeStyle;rounded=0;orthogonalLoop=1;jettySize=auto;html=1;entryX=1;entryY=0.5;entryDx=0;entryDy=0;" edge="1" parent="1" source="Y_w5nPJDf5opE5NmH8y6-7" target="Y_w5nPJDf5opE5NmH8y6-6">
          <mxGeometry relative="1" as="geometry">
            <Array as="points">
              <mxPoint x="420" y="480" />
              <mxPoint x="420" y="370" />
            </Array>
          </mxGeometry>
        </mxCell>
        <mxCell id="Y_w5nPJDf5opE5NmH8y6-15" style="edgeStyle=orthogonalEdgeStyle;rounded=0;orthogonalLoop=1;jettySize=auto;html=1;entryX=1;entryY=0.5;entryDx=0;entryDy=0;" edge="1" parent="1" source="Y_w5nPJDf5opE5NmH8y6-7" target="Y_w5nPJDf5opE5NmH8y6-9">
          <mxGeometry relative="1" as="geometry" />
        </mxCell>
        <mxCell id="Y_w5nPJDf5opE5NmH8y6-16" value="无" style="edgeLabel;html=1;align=center;verticalAlign=middle;resizable=0;points=[];" vertex="1" connectable="0" parent="Y_w5nPJDf5opE5NmH8y6-15">
          <mxGeometry x="-0.1648" y="-1" relative="1" as="geometry">
            <mxPoint as="offset" />
          </mxGeometry>
        </mxCell>
        <mxCell id="Y_w5nPJDf5opE5NmH8y6-7" value="还有图吗" style="rhombus;whiteSpace=wrap;html=1;" vertex="1" parent="1">
          <mxGeometry x="305" y="450" width="70" height="60" as="geometry" />
        </mxCell>
        <mxCell id="Y_w5nPJDf5opE5NmH8y6-9" value="保存待审核" style="ellipse;whiteSpace=wrap;html=1;fillColor=#fff2cc;strokeColor=#d6b656;" vertex="1" parent="1">
          <mxGeometry x="60" y="440" width="120" height="80" as="geometry" />
        </mxCell>
        <mxCell id="Y_w5nPJDf5opE5NmH8y6-17" value="思考：&lt;br&gt;所有上传数据都是成功的？" style="shape=callout;whiteSpace=wrap;html=1;perimeter=calloutPerimeter;fillColor=#e1d5e7;strokeColor=#9673a6;" vertex="1" parent="1">
          <mxGeometry x="60" y="310" width="120" height="80" as="geometry" />
        </mxCell>
      </root>
    </mxGraphModel>
  </diagram>
</mxfile>
